Coordinates
version=1
nRows=9
nColumns=63
inDegrees=yes

Units are S.I. units (second, meters, Newtons, ...)
If the header above contains a line with 'inDegrees', this indicates whether rotational values are in degrees (yes) or radians (no).

endheader
time	pelvis_tilt	pelvis_list	pelvis_rotation	pelvis_tx	pelvis_ty	pelvis_tz	hip_flexion_r	hip_adduction_r	hip_rotation_r	knee_angle_r	knee_angle_r_beta	ankle_angle_r	subtalar_angle_r	mtp_angle_r	hip_flexion_l	hip_adduction_l	hip_rotation_l	knee_angle_l	knee_angle_l_beta	ankle_angle_l	subtalar_angle_l	mtp_angle_l	L5_S1_Flex_Ext	L5_S1_Lat_Bending	L5_S1_axial_rotation	L4_L5_Flex_Ext	L4_L5_Lat_Bending	L4_L5_axial_rotation	L3_L4_Flex_Ext	L3_L4_Lat_Bending	L3_L4_axial_rotation	L2_L3_Flex_Ext	L2_L3_Lat_Bending	L2_L3_axial_rotation	L1_L2_Flex_Ext	L1_L2_Lat_Bending	L1_L2_axial_rotation	L1_T12_Flex_Ext	L1_T12_Lat_Bending	L1_T12_axial_rotation	Abs_r3	Abs_r2	Abs_r1	Abs_t1	Abs_t2	neck_flexion	neck_bending	neck_rotation	arm_flex_r	arm_add_r	arm_rot_r	elbow_flex_r	pro_sup_r	wrist_flex_r	wrist_dev_r	arm_flex_l	arm_add_l	arm_rot_l	elbow_flex_l	pro_sup_l	wrist_flex_l	wrist_dev_l
      3.69491525	      2.43457940	     -2.16394588	     94.16161641	      0.20077092	      0.94276616	      0.61193622	     -3.23650771	     -1.11278897	     -3.41722891	      1.05057388	      0.01833597	     23.04651193	      8.05886253	      0.00000000	     -0.34254526	      1.84421160	      3.33376804	      4.73053642	      0.08256344	     20.82244165	     -3.48186508	      0.00000000	      0.24066582	     -0.37375476	     -2.24907885	      0.44694049	     -0.49709383	     -2.38964628	      0.39538987	     -0.90874732	     -2.38964628	      0.27505696	     -0.90874732	     -1.96794399	      0.22348228	     -0.76216071	     -1.82737656	      0.13751645	     -0.57894612	     -1.68680914	      1.71905186	     -4.22798860	    -12.50870183	      0.00000000	      0.00000000	     -3.91487603	     -0.15799778	     15.93703822	      2.53574000	     -5.94713414	     11.31543067	     88.88365896	     64.42552593	     -6.42636077	     12.58606097	    -11.40353788	    -15.47877619	      4.23994057	     92.92789716	     87.45057140	    -19.31776449	     -3.57205635
      3.71186441	      2.29142091	     -2.12140914	     94.07876468	      0.20113657	      0.94318651	      0.61233562	     -3.22254262	     -1.25577760	     -3.66986541	      1.07178415	      0.01870616	     23.18177142	      8.57352459	      0.00000000	     -0.30388194	      1.93946326	      2.41450475	      4.90770093	      0.08565554	     20.99555341	     -2.32750645	      0.00000000	      0.24010608	     -0.39388814	     -2.29093956	      0.44590100	     -0.52387123	     -2.43412328	      0.39447027	     -0.95769963	     -2.43412328	      0.27441724	     -0.95769963	     -2.00457211	      0.22296250	     -0.80321670	     -1.86138839	      0.13719661	     -0.61013273	     -1.71820467	      1.71505370	     -4.45574145	    -12.74151854	      0.00000000	      0.00000000	     -4.07496276	      0.19331682	     16.22336073	      2.68353694	     -5.80958060	     11.68147155	     88.80233342	     65.47951416	     -6.70674572	     12.60020892	    -11.57910695	    -15.54892864	      3.71206314	     93.45610926	     87.31295200	    -19.29988604	     -2.96143157
      3.72881356	      2.13164019	     -2.07788365	     93.90069372	      0.20151095	      0.94352957	      0.61282480	     -3.19197861	     -1.42674971	     -3.73026678	      1.08458922	      0.01892965	     23.31323617	      8.95670669	      0.00000000	     -0.29236729	      2.07342644	      1.71278473	      5.02254744	      0.08765999	     21.05373352	     -1.61413958	      0.00000000	      0.23460316	     -0.41223370	     -2.33117670	      0.43568153	     -0.54827082	     -2.47687525	      0.38542953	     -1.00230501	     -2.47687525	      0.26812795	     -1.00230501	     -2.03977961	      0.21785250	     -0.84062695	     -1.89408107	      0.13405225	     -0.63855000	     -1.74838253	      1.67574692	     -4.66327002	    -12.96530546	      0.00000000	      0.00000000	     -4.01616606	      0.36012763	     16.47324107	      2.98902411	     -5.67585085	     12.11275529	     88.66417197	     66.23980743	     -7.11408245	     12.61839107	    -11.79684225	    -15.55226306	      3.07614476	     94.01000816	     87.10621786	    -19.32678021	     -2.51256794
      3.74576271	      2.05567233	     -2.02389137	     93.69883168	      0.20175736	      0.94383434	      0.61339949	     -3.14298491	     -1.51895593	     -3.83140962	      1.12177857	      0.01957873	     23.44955240	      9.41558868	      0.00000000	     -0.28920191	      2.13315699	      1.25034539	      5.11870697	      0.08933829	     21.00375353	     -1.26864402	      0.00000000	      0.22595162	     -0.41838407	     -2.37136812	      0.41961474	     -0.55645081	     -2.51957862	      0.37121591	     -1.01725903	     -2.51957862	      0.25824010	     -1.01725903	     -2.07494710	      0.20981867	     -0.85316880	     -1.92673659	      0.12910875	     -0.64807693	     -1.77852609	      1.61394979	     -4.73284428	    -13.18883805	      0.00000000	      0.00000000	     -3.95702350	      0.40767566	     16.61323148	      3.42713694	     -5.61909803	     12.57934064	     88.44717678	     66.66015361	     -7.56281800	     12.71958339	    -12.00141882	    -15.44634627	      2.40884113	     94.47449091	     86.90927715	    -19.35360446	     -2.26888643
      3.76271186	      2.01658441	     -1.98567961	     93.53069578	      0.20167694	      0.94394313	      0.61396454	     -3.09584744	     -1.59072431	     -3.96800777	      1.12912023	      0.01970687	     23.57691493	      9.89228892	      0.00000000	     -0.43193374	      2.28778301	      3.28863425	      4.84214183	      0.08451132	     20.12893805	     -4.36623644	      0.00000000	      0.21827803	     -0.41757255	     -2.40299018	      0.40536413	     -0.55537150	     -2.55317707	      0.35860898	     -1.01528591	     -2.55317707	      0.24946996	     -1.01528591	     -2.10261641	      0.20269298	     -0.85151395	     -1.95242952	      0.12472407	     -0.64681989	     -1.80224263	      1.55913815	     -4.72366424	    -13.36471048	      0.00000000	      0.00000000	     -3.80954636	      0.28026789	     16.55293651	      3.87178302	     -5.68259404	     12.98564825	     88.27551367	     66.71747902	     -7.93083136	     12.90832809	    -12.14563717	    -15.31139507	      1.86717416	     94.81523534	     86.68565325	    -19.24848241	     -2.20661935
      3.77966102	      1.93224474	     -1.99083688	     93.09297596	      0.20203287	      0.94409181	      0.61474117	     -2.92351547	     -1.73314836	     -4.04221280	      1.22088315	      0.02130843	     23.71729381	     10.65068727	      0.00000000	     -0.35870597	      2.35388797	      2.13996598	      4.92908985	      0.08602885	     20.19786957	     -3.38100486	      0.00000000	      0.22231584	     -0.42082273	     -2.38799056	      0.41286274	     -0.55969424	     -2.53723996	      0.36524269	     -1.02318840	     -2.53723996	      0.25408477	     -1.02318840	     -2.08949174	      0.20644249	     -0.85814172	     -1.94024233	      0.12703127	     -0.65185442	     -1.79099292	      1.58797979	     -4.76043094	    -13.28128707	      0.00000000	      0.00000000	     -3.89729416	      0.04793583	     16.50475276	      4.35150689	     -5.68324316	     13.41464020	     87.96485774	     66.57754139	     -8.39001750	     13.17067949	    -12.28351914	    -15.22920325	      1.43203774	     95.01285667	     86.58671496	    -19.37807010	     -2.27981207
      3.79661017	      1.90377318	     -1.96037316	     92.74703953	      0.20220165	      0.94423197	      0.61531791	     -2.84758809	     -1.79495496	     -3.94496536	      1.25473619	      0.02189928	     23.74027060	     10.94378846	      0.00000000	     -0.43227905	      2.42234878	      2.74196861	      4.77984434	      0.08342402	     19.68557881	     -4.68244712	      0.00000000	      0.22439922	     -0.41792189	     -2.33969133	      0.41673180	     -0.55583612	     -2.48592204	      0.36866548	     -1.01613529	     -2.48592204	      0.25646587	     -1.01613529	     -2.04722991	      0.20837712	     -0.85222632	     -1.90099921	      0.12822172	     -0.64736101	     -1.75476850	      1.60286121	     -4.72761603	    -13.01266127	      0.00000000	      0.00000000	     -4.08926231	     -0.33663096	     16.15106771	      4.54824182	     -5.61204544	     13.36581782	     87.79898865	     66.97103506	     -8.52716376	     13.61814308	    -12.18990022	    -15.17854833	      1.30766021	     94.95488918	     86.59466697	    -19.18168412	     -2.17065505
      3.81355932	      1.91267054	     -1.97019339	     92.32396136	      0.20230138	      0.94428141	      0.61583456	     -2.70774067	     -1.83983101	     -3.63761691	      1.33103215	      0.02323089	     23.75784911	     11.07058479	      0.00000000	     -0.48580601	      2.47913082	      3.37518787	      4.58472825	      0.08001860	     19.17258289	     -6.28951820	      0.00000000	      0.23497712	     -0.40688256	     -2.28033176	      0.43637600	     -0.54115381	     -2.42285249	      0.38604390	     -0.98929426	     -2.42285249	      0.26855535	     -0.98929426	     -1.99529029	      0.21819975	     -0.82971492	     -1.85276955	      0.13426592	     -0.63026109	     -1.71024882	      1.67841804	     -4.60273691	    -12.68252114	      0.00000000	      0.00000000	     -4.40708938	     -0.58088257	     16.33512827	      4.74106801	     -5.63763940	     13.42894077	     87.63579639	     66.49314569	     -8.63643002	     13.95539814	    -12.07893751	    -15.07565536	      1.28882722	     94.72716359	     86.55717780	    -19.19157048	     -2.33658367
      3.83050847	      1.93225964	     -1.97176456	     92.22071279	      0.20213223	      0.94434018	      0.61631411	     -2.61758500	     -1.85871409	     -4.22428550	      1.43345559	      0.02501852	     23.83974455	     11.93030421	      0.00000000	     -0.43498173	      2.41416922	      2.32201931	      4.61709998	      0.08058360	     19.49725316	     -4.87011536	      0.00000000	      0.23989043	     -0.39802314	     -2.26469869	      0.44550051	     -0.52937078	     -2.40624236	      0.39411598	     -0.96775347	     -2.40624236	      0.27417077	     -0.96775347	     -1.98161136	      0.22276225	     -0.81164879	     -1.84006769	      0.13707339	     -0.61653785	     -1.69852402	      1.71351332	     -4.50251738	    -12.59557472	      0.00000000	      0.00000000	     -4.58264634	     -0.74455697	     16.72657045	      4.82929706	     -5.53433964	     13.31093825	     87.51086641	     65.87889412	     -8.59838916	     14.24261095	    -11.83882753	    -15.06576695	      1.38225828	     94.40950548	     86.60458321	    -19.03536244	     -2.42004534
